<svg width="54" height="51" viewBox="0 0 54 51" fill="none" xmlns="http://www.w3.org/2000/svg">
<path d="M0.681641 18.0622C0.681641 18.0622 10.6816 0.0640575 27.1816 0.0644531C43.6816 0.0648488 53.6816 18.0622 53.6816 18.0622V50.0622H0.681641V18.0622Z" fill="#88DDFF"/>
<path d="M0.681641 18.0622C0.681641 18.0622 10.6816 0.0640575 27.1816 0.0644531C43.6816 0.0648488 53.6816 18.0622 53.6816 18.0622V50.0622H0.681641V18.0622Z" fill="#55BB44"/>
<path d="M0.681641 18.0622C0.681641 18.0622 10.6816 0.0640575 27.1816 0.0644531C43.6816 0.0648488 53.6816 18.0622 53.6816 18.0622V50.0622H0.681641V18.0622Z" fill="#FFBB11"/>
<path d="M0.681641 18.0622C0.681641 18.0622 10.6816 0.0640575 27.1816 0.0644531C43.6816 0.0648488 53.6816 18.0622 53.6816 18.0622V50.0622H0.681641V18.0622Z" fill="#221177"/>
<path fill-rule="evenodd" clip-rule="evenodd" d="M17.3247 24.307L27.1487 14.4714L37.0386 24.307C38.3572 25.6569 40.5989 23.4713 39.2803 22.1213L28.0717 10.9358C27.6102 10.4858 26.7531 10.4215 26.2915 10.8715L15.083 22.1213C13.7644 23.4713 16.0061 25.6569 17.3247 24.307Z" fill="white"/>
</svg>
