<svg width="16" height="12" viewBox="0 0 16 12" fill="none" xmlns="http://www.w3.org/2000/svg">
<path d="M15.6335 0.347385C15.5276 0.237349 15.4017 0.150011 15.263 0.0904094C15.1243 0.0308077 14.9755 0.00012207 14.8252 0.00012207C14.6749 0.00012207 14.5261 0.0308077 14.3873 0.0904094C14.2486 0.150011 14.1227 0.237349 14.0168 0.347385L5.53519 9.10531L1.97176 5.419C1.86187 5.30954 1.73215 5.22347 1.59 5.1657C1.44786 5.10794 1.29607 5.07961 1.14331 5.08234C0.990549 5.08506 0.839803 5.11879 0.699681 5.18159C0.559559 5.24439 0.432805 5.33504 0.326655 5.44835C0.220505 5.56166 0.137038 5.69543 0.0810208 5.84201C0.0250032 5.98859 -0.00246884 6.14511 0.000174094 6.30263C0.00281703 6.46016 0.035523 6.6156 0.0964241 6.7601C0.157325 6.90459 0.245229 7.0353 0.355117 7.14476L4.72687 11.6529C4.83271 11.7629 4.95862 11.8502 5.09736 11.9098C5.23609 11.9694 5.3849 12.0001 5.53519 12.0001C5.68548 12.0001 5.83429 11.9694 5.97302 11.9098C6.11176 11.8502 6.23767 11.7629 6.34351 11.6529L15.6335 2.07314C15.749 1.96321 15.8413 1.82978 15.9044 1.68127C15.9674 1.53277 16 1.37239 16 1.21026C16 1.04813 15.9674 0.887762 15.9044 0.739254C15.8413 0.590745 15.749 0.457319 15.6335 0.347385V0.347385Z" fill="white"/>
</svg>
