<svg width="593" height="519" viewBox="0 0 593 519" fill="none" xmlns="http://www.w3.org/2000/svg">
<path d="M215.245 258.475C121.745 258.475 192.245 408.475 107.245 408.475C22.2451 408.475 104.245 408.475 104.245 408.475M104.245 408.475C73.7451 408.475 79.7451 501.475 36.2451 501.475M104.245 408.475C73.7451 408.475 65.7451 455.475 36.2451 455.475M104.245 408.475C73.7451 408.475 36.2451 408.475 36.2451 408.475M104.245 408.475C73.7451 408.475 66.2451 362.475 36.2451 362.475M104.245 408.475C73.7451 408.475 67.7451 316.475 36.2451 316.475" stroke="white" stroke-width="3"/>
<path d="M377.245 259.475C470.745 259.475 400.245 109.475 485.245 109.475C570.245 109.475 488.245 109.475 488.245 109.475M488.245 109.475C518.745 109.475 512.745 16.4753 556.245 16.4753M488.245 109.475C518.745 109.475 526.745 62.4753 556.245 62.4753M488.245 109.475C518.745 109.475 556.245 109.475 556.245 109.475M488.245 109.475C518.745 109.475 526.245 155.475 556.245 155.475M488.245 109.475C518.745 109.475 524.745 201.475 556.245 201.475" stroke="white" stroke-width="3"/>
<path d="M215.245 258.475C121.745 258.475 192.245 87.4753 107.245 87.4753C104.245 87.4753 104.245 87.4753 104.245 87.4753M104.245 87.4753C73.7451 87.4753 79.7451 18.4753 36.2451 18.4753M104.245 87.4753C73.7451 87.4753 65.7451 64.4753 36.2451 64.4753M104.245 87.4753C73.7451 87.4753 66.7451 111.475 36.2451 111.475M104.245 87.4753C73.7451 87.4753 80.2451 157.475 36.2451 157.475" stroke="white" stroke-width="3"/>
<path d="M377.245 259.475C470.745 259.475 400.245 432.475 485.245 432.475C488.245 432.475 488.245 432.475 488.245 432.475M488.245 432.475C518.745 432.475 512.745 501.475 556.245 501.475M488.245 432.475C518.745 432.475 526.745 455.475 556.245 455.475M488.245 432.475C518.745 432.475 525.745 408.475 556.245 408.475M488.245 432.475C518.745 432.475 512.245 362.475 556.245 362.475" stroke="white" stroke-width="3"/>
<rect x="0.245117" y="482.475" width="36" height="36" rx="18" fill="white"/>
<rect x="0.245117" y="0.475342" width="36" height="36" rx="18" fill="white"/>
<rect x="0.245117" y="138.475" width="36" height="36" rx="18" fill="white"/>
<rect x="0.245117" y="46.4753" width="36" height="36" rx="18" fill="white"/>
<rect x="0.245117" y="92.4753" width="36" height="36" rx="18" fill="white"/>
<rect x="556.245" y="344.475" width="36" height="36" rx="18" fill="white"/>
<rect x="556.245" y="482.475" width="36" height="36" rx="18" fill="white"/>
<rect x="556.245" y="390.475" width="36" height="36" rx="18" fill="white"/>
<rect x="556.245" y="436.475" width="36" height="36" rx="18" fill="white"/>
<rect x="0.245117" y="298.475" width="36" height="36" rx="18" fill="white"/>
<rect x="0.245117" y="436.475" width="36" height="36" rx="18" fill="white"/>
<rect x="0.245117" y="344.475" width="36" height="36" rx="18" fill="white"/>
<rect x="0.245117" y="390.475" width="36" height="36" rx="18" fill="white"/>
<rect x="556.245" y="0.475342" width="36" height="36" rx="18" fill="white"/>
<rect x="556.245" y="138.475" width="36" height="36" rx="18" fill="white"/>
<rect x="556.245" y="184.475" width="36" height="36" rx="18" fill="white"/>
<rect x="556.245" y="46.4753" width="36" height="36" rx="18" fill="white"/>
<rect x="556.245" y="92.4753" width="36" height="36" rx="18" fill="white"/>
</svg>
