<svg width="7" height="13" viewBox="0 0 7 13" fill="none" xmlns="http://www.w3.org/2000/svg">
<path d="M5.15089 0.532227C5.61556 0.532227 6.10856 0.583226 6.62989 0.685226L6.47689 2.36823L6.32389 2.47023C5.79123 2.24356 5.32656 2.13023 4.92989 2.13023C4.22723 2.13023 3.87023 2.53256 3.85889 3.33723L3.84189 4.66323H5.7629L5.83089 4.78223L5.72889 6.02323H3.80789L3.75689 9.01523L3.87589 12.5002H1.61489L1.75089 9.21923L1.71689 6.02323H0.526895L0.441895 5.90423L0.560895 4.66323H1.69989L1.68289 3.72823C1.68289 2.70823 1.98323 1.92056 2.58389 1.36523C3.19589 0.809893 4.05156 0.532227 5.15089 0.532227Z" fill="white"/>
</svg>
