<svg width="24" height="25" viewBox="0 0 24 25" fill="none" xmlns="http://www.w3.org/2000/svg">
<mask id="mask0" mask-type="alpha" maskUnits="userSpaceOnUse" x="4" y="5" width="16" height="16">
<path fill-rule="evenodd" clip-rule="evenodd" d="M12 18.9682C12.2183 18.9681 12.4215 18.8569 12.5392 18.673C13.7931 16.7114 16.7095 11.9257 16.7095 9.84442C16.7095 7.24308 14.6007 5.13428 11.9993 5.13428C9.39801 5.13428 7.2892 7.24308 7.2892 9.84442C7.2892 11.9257 10.2056 16.7121 11.4601 18.673C11.5773 18.8577 11.7812 18.9692 12 18.9682ZM15.0265 16.8453C14.6741 16.8156 14.3643 17.0772 14.3346 17.4296C14.3049 17.7821 14.5665 18.0919 14.9189 18.1216C15.7313 18.1814 16.539 18.2933 17.3371 18.4565C17.4103 18.4728 17.4623 18.5378 17.4623 18.6128C17.4623 18.6878 17.4103 18.7527 17.3371 18.769C15.5788 19.1069 13.79 19.2595 12 19.2244C10.2101 19.2594 8.42156 19.1068 6.66353 18.769C6.59034 18.7527 6.5383 18.6878 6.5383 18.6128C6.5383 18.5378 6.59034 18.4728 6.66353 18.4565C7.45314 18.2947 8.25228 18.1834 9.05607 18.1235C9.40068 18.0845 9.65162 17.7783 9.62213 17.4327C9.59264 17.0872 9.29344 16.8279 8.9472 16.8478C4.31519 17.2391 4.31519 18.1997 4.31519 18.6121C4.31519 20.3207 9.64139 20.5052 12 20.5052C14.3586 20.5052 19.6848 20.3207 19.6848 18.6121C19.6848 18.1997 19.6848 17.2391 15.0265 16.8453ZM12 7.37696C10.7621 7.37696 9.75859 8.38047 9.75859 9.61836C9.75859 10.8562 10.7621 11.8598 12 11.8598C13.2379 11.8598 14.2414 10.8562 14.2414 9.61836C14.2414 8.38047 13.2379 7.37696 12 7.37696Z" fill="white"/>
</mask>
<g mask="url(#mask0)">
<path d="M0 0.5H24V24.5H0V0.5Z" fill="white"/>
</g>
</svg>
