<svg width="404" height="209" viewBox="0 0 404 209" fill="none" xmlns="http://www.w3.org/2000/svg">
<path d="M24.0335 15.052C50.9596 35.7247 67.7793 52.7164 76.8918 87.606C100.759 65.7291 158.885 48.4552 175.428 52.7181C157.373 29.0249 117.922 27.2953 91.6231 42.8152C86.9048 30.4223 47.3931 9.22803 24.0335 15.052Z" fill="white"/>
<path d="M0.673064 170.533C19.6988 174.36 32.6107 178.843 46.0759 194.452C52.8135 177.213 78.2913 153.706 87.8551 151.726C72.6212 144.115 51.9395 153.166 42.3529 167.755C36.8096 162.584 11.1938 161.66 0.673064 170.533Z" fill="white"/>
<path d="M470.621 44.6769C418.845 93.4205 387.36 132.369 375.699 207C321.358 166.419 196.584 142.631 163 154.991C195.651 101.817 277.512 89.9221 335.585 116.743C342.815 89.9221 420.711 37.447 470.621 44.6769Z" fill="white"/>
</svg>
