<svg width="1440" height="216" viewBox="0 0 1440 216" fill="none" xmlns="http://www.w3.org/2000/svg">
<path d="M0 35C95 0 229.741 -18.4768 501 35C851 104 1341 83 1440 21.1603V215H0V35Z" fill="#88DDFF"/>
<path d="M0 35C95 0 229.741 -18.4768 501 35C851 104 1341 83 1440 21.1603V215H0V35Z" fill="#55BB44"/>
<path d="M0 35C95 0 229.741 -18.4768 501 35C851 104 1341 83 1440 21.1603V215H0V35Z" fill="#FFBB11"/>
<path d="M0 35C95 0 229.741 -18.4768 501 35C851 104 1341 83 1440 21.1603V215H0V35Z" fill="#221177"/>
<path d="M0 35C95 0 229.741 -18.4768 501 35C851 104 1341 83 1440 21.1603V215H0V35Z" stroke="#88DDFF"/>
<path d="M0 35C95 0 229.741 -18.4768 501 35C851 104 1341 83 1440 21.1603V215H0V35Z" stroke="#55BB44"/>
<path d="M0 35C95 0 229.741 -18.4768 501 35C851 104 1341 83 1440 21.1603V215H0V35Z" stroke="#FFBB11"/>
<path d="M0 35C95 0 229.741 -18.4768 501 35C851 104 1341 83 1440 21.1603V215H0V35Z" stroke="#221177"/>
</svg>
