<svg width="55" height="49" viewBox="0 0 55 49" fill="none" xmlns="http://www.w3.org/2000/svg">
<path d="M1.46667 49C0.825 49 0.275 48.5438 0.091667 47.905C-0.0916663 47.2663 0.183333 46.6276 0.733333 46.2626C5.59167 43.3426 7.7 39.054 8.34167 37.1378C3.025 33.1229 0 27.4655 0 21.6257C0 18.7058 0.733333 15.7858 2.2 13.0484C3.575 10.4935 5.59167 8.12104 8.15833 6.20484C13.2917 2.18994 20.1667 0 27.5 0C34.8333 0 41.6167 2.18994 46.8417 6.20484C49.4083 8.21229 51.425 10.4935 52.8 13.0484C54.2667 15.7858 55 18.6145 55 21.6257C55 24.6369 54.2667 27.4655 52.8 30.203C51.425 32.7579 49.4083 35.1303 46.8417 37.0466C41.7083 41.0614 34.8333 43.2514 27.5 43.2514C24.475 43.2514 21.5417 42.8864 18.7917 42.1564C17.5083 42.9777 15.2167 44.4376 12.4667 45.8063C8.15833 47.9963 4.4 49 1.46667 49Z" fill="#88DDFF"/>
<path d="M1.46667 49C0.825 49 0.275 48.5438 0.091667 47.905C-0.0916663 47.2663 0.183333 46.6276 0.733333 46.2626C5.59167 43.3426 7.7 39.054 8.34167 37.1378C3.025 33.1229 0 27.4655 0 21.6257C0 18.7058 0.733333 15.7858 2.2 13.0484C3.575 10.4935 5.59167 8.12104 8.15833 6.20484C13.2917 2.18994 20.1667 0 27.5 0C34.8333 0 41.6167 2.18994 46.8417 6.20484C49.4083 8.21229 51.425 10.4935 52.8 13.0484C54.2667 15.7858 55 18.6145 55 21.6257C55 24.6369 54.2667 27.4655 52.8 30.203C51.425 32.7579 49.4083 35.1303 46.8417 37.0466C41.7083 41.0614 34.8333 43.2514 27.5 43.2514C24.475 43.2514 21.5417 42.8864 18.7917 42.1564C17.5083 42.9777 15.2167 44.4376 12.4667 45.8063C8.15833 47.9963 4.4 49 1.46667 49Z" fill="#55BB44"/>
<path d="M1.46667 49C0.825 49 0.275 48.5438 0.091667 47.905C-0.0916663 47.2663 0.183333 46.6276 0.733333 46.2626C5.59167 43.3426 7.7 39.054 8.34167 37.1378C3.025 33.1229 0 27.4655 0 21.6257C0 18.7058 0.733333 15.7858 2.2 13.0484C3.575 10.4935 5.59167 8.12104 8.15833 6.20484C13.2917 2.18994 20.1667 0 27.5 0C34.8333 0 41.6167 2.18994 46.8417 6.20484C49.4083 8.21229 51.425 10.4935 52.8 13.0484C54.2667 15.7858 55 18.6145 55 21.6257C55 24.6369 54.2667 27.4655 52.8 30.203C51.425 32.7579 49.4083 35.1303 46.8417 37.0466C41.7083 41.0614 34.8333 43.2514 27.5 43.2514C24.475 43.2514 21.5417 42.8864 18.7917 42.1564C17.5083 42.9777 15.2167 44.4376 12.4667 45.8063C8.15833 47.9963 4.4 49 1.46667 49Z" fill="#FFBB11"/>
<path d="M1.46667 49C0.825 49 0.275 48.5438 0.091667 47.905C-0.0916663 47.2663 0.183333 46.6276 0.733333 46.2626C5.59167 43.3426 7.7 39.054 8.34167 37.1378C3.025 33.1229 0 27.4655 0 21.6257C0 18.7058 0.733333 15.7858 2.2 13.0484C3.575 10.4935 5.59167 8.12104 8.15833 6.20484C13.2917 2.18994 20.1667 0 27.5 0C34.8333 0 41.6167 2.18994 46.8417 6.20484C49.4083 8.21229 51.425 10.4935 52.8 13.0484C54.2667 15.7858 55 18.6145 55 21.6257C55 24.6369 54.2667 27.4655 52.8 30.203C51.425 32.7579 49.4083 35.1303 46.8417 37.0466C41.7083 41.0614 34.8333 43.2514 27.5 43.2514C24.475 43.2514 21.5417 42.8864 18.7917 42.1564C17.5083 42.9777 15.2167 44.4376 12.4667 45.8063C8.15833 47.9963 4.4 49 1.46667 49Z" fill="#221177"/>
<path d="M33.2779 29.9901C31.1835 31.755 26.4259 29.5613 22.6569 25.0881C18.8879 20.6149 17.5338 15.555 19.6282 13.7901L21.7948 11.962C22.174 11.6415 22.7427 11.6912 23.0632 12.0704L24.9319 14.2866C25.2524 14.6658 25.2027 15.2345 24.8235 15.555L23.3114 16.8279C22.1469 17.8119 22.851 20.6195 24.9499 23.1066C27.0488 25.5936 29.7391 26.8259 30.9081 25.8419L32.4202 24.569C32.7994 24.2485 33.3681 24.2982 33.6886 24.6773L35.5573 26.8936C35.8778 27.2728 35.8281 27.8415 35.449 28.162L33.2779 29.9901Z" fill="white"/>
<path d="M32.9219 29.6334C32.8181 29.7191 32.9399 29.6288 32.8767 29.6695C32.8406 29.692 32.8045 29.7191 32.7684 29.7417C32.6826 29.7959 32.5924 29.841 32.5021 29.8861C32.3983 29.9403 32.5517 29.8726 32.466 29.9042C32.4254 29.9177 32.3802 29.9358 32.3396 29.9493C32.2403 29.9809 32.141 30.0125 32.0372 30.0306C31.992 30.0396 31.9469 30.0486 31.9018 30.0577C31.8747 30.0622 31.8476 30.0667 31.8205 30.0712C31.9334 30.0531 31.8566 30.0667 31.8341 30.0667C31.7212 30.0757 31.6084 30.0847 31.4955 30.0893C31.2698 30.0938 31.0487 30.0802 30.8275 30.0531C30.9358 30.0667 30.7507 30.0396 30.7282 30.0351C30.674 30.0261 30.6153 30.017 30.5612 30.0035C30.4303 29.9764 30.2994 29.9448 30.173 29.9132C29.9157 29.8455 29.6629 29.7643 29.4147 29.6695C28.9001 29.4754 28.3675 29.2136 27.8574 28.9157C25.2665 27.4126 23.0863 25.1241 21.4659 22.6235C20.694 21.4363 20.0305 20.168 19.5972 18.8138C19.5024 18.5159 19.4166 18.2135 19.3489 17.9066C19.3173 17.7666 19.2857 17.6267 19.2632 17.4823C19.2496 17.4191 19.2406 17.3514 19.2316 17.2882C19.2271 17.2611 19.2225 17.234 19.218 17.2069C19.191 17.0309 19.2225 17.2521 19.209 17.1528C19.1774 16.8864 19.1594 16.6201 19.1594 16.3538C19.1594 16.241 19.1639 16.1281 19.1684 16.0153C19.1729 15.9521 19.1774 15.8889 19.1819 15.8257C19.1864 15.7941 19.1864 15.7625 19.191 15.7354C19.1864 15.7851 19.1819 15.7851 19.191 15.7354C19.2271 15.5142 19.2767 15.2931 19.3489 15.0809C19.367 15.0358 19.3805 14.9906 19.3986 14.9455C19.358 15.0493 19.4166 14.9094 19.4302 14.8823C19.4753 14.792 19.5205 14.7063 19.5746 14.6205C19.6017 14.5754 19.6333 14.5348 19.6604 14.4896C19.7236 14.3948 19.6288 14.5167 19.6875 14.4535C19.7597 14.3768 19.8229 14.3 19.8996 14.2278C19.9583 14.1737 20.0215 14.124 20.0802 14.0698C20.6715 13.5688 21.2673 13.0723 21.8586 12.5713C21.9444 12.499 22.0301 12.4133 22.1249 12.3456C22.2197 12.2734 22.319 12.2463 22.4138 12.2553C22.5357 12.2688 22.6305 12.3411 22.7298 12.4584C22.802 12.5442 22.8742 12.6299 22.9464 12.7157C23.452 13.316 23.9575 13.9164 24.463 14.5167C24.6571 14.7514 24.7158 14.9545 24.4856 15.1712C24.269 15.3698 24.0342 15.5549 23.8086 15.7445C23.2127 16.2455 22.5673 16.6743 22.3461 17.4642C22.0166 18.6513 22.4725 19.9694 22.9825 21.0346C23.6686 22.4564 24.6933 23.7474 25.8804 24.781C26.8283 25.6071 27.9883 26.4105 29.2522 26.6272C29.7532 26.7129 30.2723 26.7175 30.7507 26.5188C31.0532 26.3925 31.2924 26.1803 31.5407 25.9682C31.8702 25.6928 32.1997 25.413 32.5247 25.1376C32.6059 25.0699 32.6826 24.9887 32.7684 24.93C32.8948 24.8442 33.0528 24.8352 33.1837 24.9119C33.3642 25.0158 33.5312 25.2866 33.6757 25.4536C33.951 25.7786 34.2264 26.1036 34.4972 26.4286C34.7138 26.6813 34.9395 26.9341 35.1427 27.1959C35.3097 27.4081 35.2916 27.6112 35.0704 27.8098C34.5333 28.2837 33.9736 28.7351 33.4229 29.1955C33.2604 29.3445 33.0889 29.4889 32.9219 29.6334C32.7097 29.8094 32.7413 30.1705 32.9219 30.351C33.1295 30.5587 33.4319 30.5271 33.6396 30.351C34.1767 29.8997 34.7139 29.4438 35.251 28.9924C35.4361 28.8344 35.6256 28.6855 35.8062 28.523C36.402 27.9903 36.393 27.1237 35.91 26.5324C35.4496 25.9682 34.9666 25.413 34.4972 24.8578C34.3347 24.6637 34.1812 24.456 34.0052 24.2755C33.459 23.7203 32.6285 23.7519 32.0507 24.2258C31.7754 24.4515 31.5091 24.6817 31.2382 24.9074C31.0757 25.0428 30.9132 25.1828 30.7507 25.3182C30.7011 25.3588 30.656 25.3994 30.6063 25.4401C30.5837 25.4581 30.498 25.5258 30.5973 25.4536C30.5205 25.5078 30.4393 25.5529 30.358 25.598C30.2949 25.6296 30.4438 25.571 30.3761 25.589C30.358 25.5935 30.34 25.6026 30.3219 25.6071C30.2587 25.6251 30.1956 25.6432 30.1324 25.6567C30.1143 25.6612 30.0917 25.6657 30.0737 25.6657C30.0015 25.6793 30.164 25.6612 30.0872 25.6657C30.0376 25.6703 29.9879 25.6748 29.9383 25.6748C29.8796 25.6748 29.8209 25.6748 29.7622 25.6748C29.7261 25.6748 29.5727 25.6612 29.6042 25.6657C29.1258 25.6071 28.5706 25.3769 28.1102 25.1286C26.7831 24.3974 25.6457 23.2825 24.77 22.0502C24.3367 21.4408 23.944 20.7818 23.6686 20.0867C23.5468 19.7753 23.4429 19.4548 23.3662 19.1298C23.294 18.8229 23.2714 18.6604 23.2624 18.3444C23.2624 18.2225 23.2669 18.1006 23.2759 17.9833C23.285 17.902 23.2624 18.06 23.2759 17.9833C23.2804 17.9517 23.285 17.9246 23.294 17.893C23.3075 17.8298 23.3211 17.7666 23.3391 17.7034C23.3527 17.6583 23.3707 17.6086 23.3888 17.5635C23.4159 17.4913 23.3527 17.6357 23.3843 17.5725C23.3978 17.55 23.4068 17.5229 23.4204 17.5003C23.4429 17.4597 23.4655 17.4191 23.4926 17.383C23.5061 17.3604 23.5242 17.3378 23.5377 17.3198C23.47 17.41 23.5287 17.3333 23.5468 17.3198C23.7589 17.1121 23.9981 16.9271 24.2238 16.733C24.5262 16.4757 24.8332 16.2229 25.1356 15.9656C25.6457 15.5323 25.7901 14.8282 25.4922 14.2278C25.3658 13.9705 25.1221 13.7358 24.937 13.5192C24.6436 13.1716 24.3502 12.824 24.0568 12.4765C23.8537 12.2327 23.6506 11.989 23.4474 11.7498C23.0141 11.2487 22.2829 11.1088 21.6961 11.4248C21.4388 11.5647 21.2041 11.8039 20.9829 11.9935C20.6399 12.2824 20.2968 12.5713 19.9493 12.8647C19.4121 13.316 18.8614 13.7268 18.55 14.3768C18.0715 15.3743 18.076 16.5028 18.2431 17.5725C18.4552 18.9312 18.9788 20.2447 19.6062 21.4634C21.0913 24.3567 23.3165 26.9477 25.93 28.875C26.9953 29.6604 28.1644 30.3375 29.4237 30.7618C30.3761 31.0823 31.4504 31.2538 32.4389 30.9875C32.8858 30.8656 33.283 30.649 33.6351 30.3556C33.8472 30.1795 33.8156 29.8184 33.6351 29.6379C33.4274 29.4212 33.1295 29.4573 32.9219 29.6334Z" fill="white"/>
<path d="M28.2062 19.7751C28.6574 19.7751 29.0231 19.4093 29.0231 18.9581C29.0231 18.5069 28.6574 18.1411 28.2062 18.1411C27.7549 18.1411 27.3892 18.5069 27.3892 18.9581C27.3892 19.4093 27.7549 19.7751 28.2062 19.7751Z" fill="white"/>
<path d="M28.5759 18.9583C28.5578 19.4323 27.8401 19.4368 27.8401 18.9583C27.8401 18.4844 28.5578 18.4889 28.5759 18.9583C28.5985 19.5361 29.5012 19.5406 29.4786 18.9583C29.4516 18.2677 28.9189 17.6899 28.2103 17.6899C27.5197 17.6899 26.9419 18.2677 26.9419 18.9583C26.9419 19.6444 27.5197 20.2312 28.2103 20.2267C28.9189 20.2222 29.4561 19.6489 29.4786 18.9583C29.4967 18.3806 28.5939 18.3806 28.5759 18.9583Z" fill="white"/>
<path d="M31.9171 19.7751C32.3683 19.7751 32.7341 19.4093 32.7341 18.9581C32.7341 18.5069 32.3683 18.1411 31.9171 18.1411C31.4659 18.1411 31.1001 18.5069 31.1001 18.9581C31.1001 19.4093 31.4659 19.7751 31.9171 19.7751Z" fill="white"/>
<path d="M32.2858 18.9583C32.2678 19.4323 31.5501 19.4368 31.5501 18.9583C31.5501 18.4844 32.2678 18.4889 32.2858 18.9583C32.3084 19.5361 33.2112 19.5406 33.1886 18.9583C33.1615 18.2677 32.6289 17.6899 31.9202 17.6899C31.2296 17.6899 30.6519 18.2677 30.6519 18.9583C30.6519 19.6444 31.2296 20.2312 31.9202 20.2267C32.6289 20.2222 33.166 19.6489 33.1886 18.9583C33.2067 18.3806 32.3039 18.3806 32.2858 18.9583Z" fill="white"/>
<path d="M35.7315 19.7751C36.1828 19.7751 36.5485 19.4093 36.5485 18.9581C36.5485 18.5069 36.1828 18.1411 35.7315 18.1411C35.2803 18.1411 34.9146 18.5069 34.9146 18.9581C34.9146 19.4093 35.2803 19.7751 35.7315 19.7751Z" fill="white"/>
<path d="M36.0959 18.9583C36.0778 19.4323 35.3602 19.4368 35.3602 18.9583C35.3602 18.4844 36.0778 18.4889 36.0959 18.9583C36.1185 19.5361 37.0212 19.5406 36.9987 18.9583C36.9716 18.2677 36.4389 17.6899 35.7303 17.6899C35.0397 17.6899 34.4619 18.2677 34.4619 18.9583C34.4619 19.6444 35.0397 20.2312 35.7303 20.2267C36.4389 20.2222 36.9761 19.6489 36.9987 18.9583C37.0212 18.3806 36.1185 18.3806 36.0959 18.9583Z" fill="white"/>
</svg>
