<svg width="204" height="148" viewBox="0 0 204 148" fill="none" xmlns="http://www.w3.org/2000/svg">
<path fill-rule="evenodd" clip-rule="evenodd" d="M8.5 38.5C4.35787 38.5 1 41.8579 1 46V124C1 125.933 2.567 127.5 4.5 127.5H67.3226C67.5214 126.497 67.693 125.495 67.8355 124.5H4.5C4.22386 124.5 4 124.276 4 124V46C4 43.5147 6.01472 41.5 8.5 41.5H98.5C100.985 41.5 103 43.5147 103 46V90.0677C104.2 90.9275 105.222 92.0193 106 93.2729V46C106 41.8579 102.642 38.5 98.5 38.5H8.5ZM10 44.5C8.34315 44.5 7 45.8431 7 47.5C7 49.1569 8.34315 50.5 10 50.5C11.6569 50.5 13 49.1569 13 47.5C13 45.8431 11.6569 44.5 10 44.5ZM19 44.5C17.3431 44.5 16 45.8431 16 47.5C16 49.1569 17.3431 50.5 19 50.5C20.6569 50.5 22 49.1569 22 47.5C22 45.8431 20.6569 44.5 19 44.5ZM28 44.5C26.3431 44.5 25 45.8431 25 47.5C25 49.1569 26.3431 50.5 28 50.5C29.6569 50.5 31 49.1569 31 47.5C31 45.8431 29.6569 44.5 28 44.5Z" fill="#222222"/>
<path fill-rule="evenodd" clip-rule="evenodd" d="M15 69.5C15 67.0325 17.0325 65 19.5 65H46.5C48.9675 65 51 67.0325 51 69.5V111.5C51 113.967 48.9675 116 46.5 116H45C44.8012 116.003 44.6039 115.966 44.4194 115.892C44.235 115.818 44.0671 115.708 43.9255 115.568C43.784 115.429 43.6716 115.262 43.5949 115.079C43.5181 114.896 43.4786 114.699 43.4786 114.5C43.4786 114.301 43.5181 114.104 43.5949 113.921C43.6716 113.738 43.784 113.571 43.9255 113.432C44.0671 113.292 44.235 113.182 44.4194 113.108C44.6039 113.034 44.8012 112.997 45 113H46.5C47.3475 113 48 112.348 48 111.5V69.5C48 68.6525 47.3475 68 46.5 68H19.5C18.6525 68 18 68.6525 18 69.5V111.5C18 112.348 18.6525 113 19.5 113H21C21.1988 112.997 21.3961 113.034 21.5806 113.108C21.765 113.182 21.9329 113.292 22.0745 113.432C22.216 113.571 22.3284 113.738 22.4051 113.921C22.4819 114.104 22.5214 114.301 22.5214 114.5C22.5214 114.699 22.4819 114.896 22.4051 115.079C22.3284 115.262 22.216 115.429 22.0745 115.568C21.9329 115.708 21.765 115.818 21.5806 115.892C21.3961 115.966 21.1988 116.003 21 116H19.5C17.0325 116 15 113.967 15 111.5V69.5ZM57 69.5C57 67.0325 59.0325 65 61.5 65H88.5C90.9675 65 93 67.0325 93 69.5V74C93 76.4675 90.9675 78.5 88.5 78.5H61.5C59.0325 78.5 57 76.4675 57 74V69.5ZM88.5 68H61.5C60.6525 68 60 68.6525 60 69.5V74C60 74.8475 60.6525 75.5 61.5 75.5H88.5C89.3475 75.5 90 74.8475 90 74V69.5C90 68.6525 89.3475 68 88.5 68ZM57 89V86H93V88.5899C92.649 88.7098 92.306 88.8468 91.9719 89H57ZM85.9562 104H57V107H86.2959L85.9562 104ZM69.62 113H57V116H68.5127C68.7195 114.93 69.0987 113.92 69.62 113ZM57 98V95H85V98H57ZM25.9393 113.439C26.2206 113.158 26.6022 113 27 113C27.3978 113 27.7794 113.158 28.0607 113.439C28.342 113.721 28.5 114.102 28.5 114.5C28.5 114.898 28.342 115.279 28.0607 115.561C27.7794 115.842 27.3978 116 27 116C26.6022 116 26.2206 115.842 25.9393 115.561C25.658 115.279 25.5 114.898 25.5 114.5C25.5 114.102 25.658 113.721 25.9393 113.439ZM31.9393 113.439C32.2206 113.158 32.6022 113 33 113C33.3978 113 33.7794 113.158 34.0607 113.439C34.342 113.721 34.5 114.102 34.5 114.5C34.5 114.898 34.342 115.279 34.0607 115.561C33.7794 115.842 33.3978 116 33 116C32.6022 116 32.2206 115.842 31.9393 115.561C31.658 115.279 31.5 114.898 31.5 114.5C31.5 114.102 31.658 113.721 31.9393 113.439ZM37.9393 113.439C38.2206 113.158 38.6022 113 39 113C39.3978 113 39.7794 113.158 40.0607 113.439C40.342 113.721 40.5 114.102 40.5 114.5C40.5 114.898 40.342 115.279 40.0607 115.561C39.7794 115.842 39.3978 116 39 116C38.6022 116 38.2206 115.842 37.9393 115.561C37.658 115.279 37.5 114.898 37.5 114.5C37.5 114.102 37.658 113.721 37.9393 113.439Z" fill="#222222"/>
<path d="M67.8 145.3C67.8 145.3 74.6282 137.106 75.2542 116.809C75.3052 115.153 76.6401 113.8 78.2969 113.8C80.6455 113.8 84.2706 113.8 88.8 113.8C97.05 113.8 85.05 95.7998 96.3 95.7998C107.55 95.7998 95.55 113.8 103.8 113.8C108.329 113.8 111.954 113.8 114.303 113.8C115.96 113.8 117.306 115.151 117.248 116.807C116.584 135.802 109.8 145.3 109.8 145.3C109.8 145.3 78 145.3 75.75 145.3C79.05 139.3 79.8 134.8 79.8 134.8" stroke="#222222" stroke-width="3" stroke-linecap="round"/>
<path d="M82.5 122.8H110.1M8.69995 55.3999H98.7M27 114.5H39" stroke="#162EF4" stroke-width="3" stroke-linecap="round" stroke-linejoin="round" stroke-dasharray="0.01 6"/>
</svg>
