<svg width="120" height="120" viewBox="0 0 120 120" fill="none" xmlns="http://www.w3.org/2000/svg">
<path d="M60.6918 91.5818L19.3428 102.661L4.80847 48.4185L22.5 43.678" stroke="#162EF4" stroke-width="3" stroke-linecap="round" stroke-linejoin="round" stroke-dasharray="0.01 6"/>
<path d="M76 32.7871L101.223 39.5456L112 42.4332L97.6773 95.8861L56.2944 84.7976L57.9818 78.5001M75.2194 71.3878L87.2259 74.6049C89.3598 75.1767 91.5531 73.9104 92.1249 71.7765L95.1366 60.5368C95.7084 58.4029 94.442 56.2095 92.3082 55.6378L81.0684 52.6261C78.9346 52.0543 76.7412 53.3207 76.1694 55.4545L75.4873 58.0001" stroke="#222222" stroke-width="3"/>
<path fill-rule="evenodd" clip-rule="evenodd" d="M84.7786 60.3041C84.3859 59.7282 83.7241 59.3078 82.8659 59.0778L79.8939 58.2815L77.9993 65.3522L80.1173 65.9197L80.6364 63.9823L81.3962 64.1859C82.2391 64.4117 83.0418 64.3948 83.696 64.1014C84.3548 63.806 84.8457 63.2376 85.0705 62.3987C85.2841 61.6018 85.1734 60.8831 84.7786 60.3041ZM82.3015 60.6189C82.6517 60.7128 82.9309 60.8755 83.099 61.1123C83.2704 61.3536 83.3115 61.6507 83.2242 61.9767C83.1403 62.2896 82.9552 62.5263 82.6895 62.6555C82.4266 62.7832 82.1029 62.7971 81.753 62.7033L80.7412 62.4322L81.299 60.3503L82.3015 60.6189Z" fill="#222222"/>
<path d="M87.7953 61.9353C87.1825 61.7711 86.593 61.7858 86.111 62C85.6246 62.216 85.2623 62.629 85.102 63.2274C84.9462 63.809 85.0604 64.2641 85.3468 64.6432C85.6247 65.011 86.0595 65.3 86.5257 65.5754L86.5267 65.5759C86.7785 65.7222 86.954 65.8305 87.0607 65.9239C87.1695 66.0191 87.1615 66.058 87.1576 66.0727C87.1407 66.1357 87.1153 66.1559 87.0839 66.1666C87.0387 66.182 86.9543 66.1848 86.8085 66.1457C86.3148 66.0134 85.7532 65.6575 85.2913 65.1223L85.1877 65.0022L84.008 66.1418L84.0928 66.2484C84.6812 66.9882 85.4904 67.484 86.3762 67.7213C87.0193 67.8937 87.6175 67.8878 88.1025 67.6732C88.5928 67.4564 88.9476 67.0348 89.1123 66.42C89.2635 65.8557 89.1456 65.4083 88.8604 65.0308C88.5835 64.6643 88.1522 64.3682 87.6888 64.0833C87.4387 63.9268 87.2615 63.8131 87.1517 63.7156C87.0382 63.6148 87.0464 63.5757 87.0499 63.5624C87.0592 63.5279 87.077 63.5082 87.1121 63.496C87.1552 63.481 87.2327 63.476 87.3535 63.5084C87.7243 63.6077 88.2278 63.9269 88.665 64.3586L88.7752 64.4674L89.8966 63.2559L89.8068 63.1542C89.3054 62.5864 88.566 62.1418 87.7953 61.9353Z" fill="#222222"/>
<path d="M46.4999 37.5L39.5 45L51.5 59L63.5 45L56.5 37.5H46.4999Z" stroke="#222222" stroke-width="3"/>
</svg>
