<svg width="120" height="120" viewBox="0 0 120 120" fill="none" xmlns="http://www.w3.org/2000/svg">
<path d="M36.7973 49.05L68.7067 68.9919C68.7129 68.9957 68.7209 68.992 68.7219 68.9848L77 12L7.02567 40.8247C7.01701 40.8283 7.01757 40.8407 7.02652 40.8435L29.7034 47.8765M36.7973 49.05L62.1197 27.775M36.7973 49.05L40.3399 68.9756C40.3415 68.9845 40.353 68.9869 40.358 68.9794L45.0735 61.9588" stroke="#222222" stroke-width="3"/>
<path d="M27 62C19.9224 69.5 5.23647 86.1875 12.5 93.5C21.4402 102.5 57.1309 83.6875 62.4857 96.625C65.2795 103.375 55.7806 109 55.7806 109" stroke="#162EF4" stroke-width="3" stroke-linecap="round" stroke-dasharray="0.01 6"/>
</svg>
