<svg width="120" height="120" viewBox="0 0 120 120" fill="none" xmlns="http://www.w3.org/2000/svg">
<path d="M56.5 94.5C71.6144 94.5 84.4911 84.9195 89.3887 71.5M86.8176 42C80.766 31.5385 69.4549 24.5 56.5 24.5C52.2844 24.5 48.2429 25.2453 44.5 26.6113M26.1824 77C23.2044 71.852 21.5 65.875 21.5 59.5C21.5 53.125 23.2044 47.148 26.1824 42" stroke="#162EF4" stroke-width="3" stroke-linecap="round" stroke-dasharray="0.01 6"/>
<path d="M72.5 63.5V50.5C72.5 48.2909 74.2909 46.5 76.5 46.5H98.5C100.709 46.5 102.5 48.2909 102.5 50.5V63.5C102.5 65.7091 100.709 67.5 98.5 67.5H89.0708C88.0611 67.5 87.0888 67.8818 86.349 68.5688L80.5 74V67.6C80.5 67.5448 80.4552 67.5 80.4 67.5H76.5C74.2909 67.5 72.5 65.7091 72.5 63.5Z" stroke="#222222" stroke-width="3"/>
<path d="M9.5 33.5V20.5C9.5 18.2909 11.2909 16.5 13.5 16.5H35.5C37.7091 16.5 39.5 18.2909 39.5 20.5V33.5C39.5 35.7091 37.7091 37.5 35.5 37.5H26.0708C25.0611 37.5 24.0888 37.8818 23.349 38.5688L17.5 44V37.6C17.5 37.5448 17.4552 37.5 17.4 37.5H13.5C11.2909 37.5 9.5 35.7091 9.5 33.5Z" stroke="#222222" stroke-width="3"/>
<path d="M20.5 98.5V85.5C20.5 83.2909 22.2909 81.5 24.5 81.5H46.5C48.7091 81.5 50.5 83.2909 50.5 85.5V98.5C50.5 100.709 48.7091 102.5 46.5 102.5H37.0708C36.0611 102.5 35.0888 102.882 34.349 103.569L28.5 109V102.6C28.5 102.545 28.4552 102.5 28.4 102.5H24.5C22.2909 102.5 20.5 100.709 20.5 98.5Z" stroke="#222222" stroke-width="3"/>
<path d="M33.9253 97H36.6346V94.609H33.9253V97ZM34.4892 93.7932H36.1532L36.3183 92.8931C37.8448 92.5134 39 91.7539 39 89.9817C39 88.1252 37.5835 87 35.5619 87C33.9804 87 32.8389 87.6188 32 88.4768L33.3752 90.3333C34.0216 89.7426 34.7367 89.4051 35.3831 89.4051C36.0432 89.4051 36.4145 89.7004 36.4145 90.1786C36.4145 90.7975 35.8507 91.1772 34.2554 91.3179L34.1454 91.4444L34.4892 93.7932Z" fill="#222222"/>
<path d="M89 56.5C89 57.3284 88.3284 58 87.5 58C86.6716 58 86 57.3284 86 56.5C86 55.6716 86.6716 55 87.5 55C88.3284 55 89 55.6716 89 56.5Z" fill="#222222"/>
<path d="M84 56.5C84 57.3284 83.3284 58 82.5 58C81.6716 58 81 57.3284 81 56.5C81 55.6716 81.6716 55 82.5 55C83.3284 55 84 55.6716 84 56.5Z" fill="#222222"/>
<path d="M94 56.5C94 57.3284 93.3284 58 92.5 58C91.6716 58 91 57.3284 91 56.5C91 55.6716 91.6716 55 92.5 55C93.3284 55 94 55.6716 94 56.5Z" fill="#222222"/>
<path d="M20.5 27L24 29.5L28.5 23" stroke="#222222" stroke-width="2"/>
</svg>
