<svg width="14" height="15" viewBox="0 0 14 15" fill="none" xmlns="http://www.w3.org/2000/svg">
<path d="M1.79697 0.5H12.2032C13.1914 0.5 14 1.23167 14 2.29683V12.7033C14 13.7685 13.1914 14.5001 12.2032 14.5001H1.79697C0.808428 14.5001 0 13.7685 0 12.7033V2.29683C0 1.23167 0.808428 0.5 1.79697 0.5ZM10.1985 2.05548C9.85178 2.05548 9.56845 2.33894 9.56845 2.6858V4.19442C9.56845 4.54113 9.85178 4.82474 10.1985 4.82474H11.7808C12.1276 4.82474 12.4112 4.54113 12.4112 4.19442V2.6858C12.4112 2.33894 12.1276 2.05548 11.7808 2.05548H10.1985ZM12.4178 6.42061H11.1856C11.3022 6.80125 11.3653 7.20446 11.3653 7.62161C11.3653 9.9503 9.41666 11.838 7.01337 11.838C4.61022 11.838 2.66189 9.9503 2.66189 7.62161C2.66189 7.20417 2.72485 6.80111 2.84157 6.42061H1.55576V12.3345C1.55576 12.6405 1.80617 12.8911 2.11235 12.8911H11.8615C12.1677 12.8911 12.4181 12.6406 12.4181 12.3345V6.42061H12.4178ZM7.01322 4.74525C5.46048 4.74525 4.20155 5.96494 4.20155 7.46967C4.20155 8.9744 5.46048 10.1941 7.01322 10.1941C8.56611 10.1941 9.82518 8.9744 9.82518 7.46967C9.82518 5.96494 8.56626 4.74525 7.01322 4.74525Z" fill="white"/>
</svg>
