<svg width="9" height="12" viewBox="0 0 9 12" fill="none" xmlns="http://www.w3.org/2000/svg">
<path d="M6.10593 5.82216C6.85393 6.00349 7.4036 6.30949 7.75493 6.74016C8.1176 7.15949 8.29893 7.71482 8.29893 8.40616C8.29893 10.5255 6.6386 11.5852 3.31793 11.5852C2.34326 11.5852 1.34593 11.5568 0.325928 11.5002L0.444928 8.23616L0.325928 0.552156L4.21893 0.535156C5.34093 0.535156 6.21359 0.773156 6.83693 1.24916C7.46026 1.71382 7.77193 2.38816 7.77193 3.27216C7.77193 3.86149 7.62459 4.37716 7.32993 4.81916C7.04659 5.26116 6.6386 5.59549 6.10593 5.82216ZM5.40893 3.57816C5.40893 3.07949 5.26159 2.72816 4.96693 2.52416C4.67226 2.30882 4.15659 2.20116 3.41993 2.20116H2.58693L2.53593 5.17616L4.13393 5.22716C4.56459 5.11382 4.88193 4.92682 5.08593 4.66616C5.30126 4.40549 5.40893 4.04282 5.40893 3.57816ZM3.70893 9.93616C4.42293 9.93616 4.97259 9.79449 5.35793 9.51116C5.75459 9.22782 5.95293 8.81982 5.95293 8.28716C5.95293 7.48249 5.43159 6.98382 4.38893 6.79116L2.50193 6.82516L2.48493 8.03216L2.53593 9.86816C2.93259 9.91349 3.32359 9.93616 3.70893 9.93616Z" fill="white"/>
</svg>
