<svg width="593" height="519" fill="none" xmlns="http://www.w3.org/2000/svg"><path d="M215.245 258.475c-93.5 0-23 150-108 150h-3m0 0c-30.5 0-24.5 93-68 93m68-93c-30.5 0-38.5 47-68 47m68-47h-68m68 0c-30.5 0-38-46-68-46m68 46c-30.5 0-36.5-92-68-92m341-57c93.5 0 23-150 108-150h3m0 0c30.5 0 24.5-93 68-93m-68 93c30.5 0 38.5-47 68-47m-68 47h68m-68 0c30.5 0 38 46 68 46m-68-46c30.5 0 36.5 92 68 92m-341 57c-93.5 0-23-171-108-171h-3m0 0c-30.5 0-24.5-69-68-69m68 69c-30.5 0-38.5-23-68-23m68 23c-30.5 0-37.5 24-68 24m68-24c-30.5 0-24 70-68 70m341 102c93.5 0 23 173 108 173h3m0 0c30.5 0 24.5 69 68 69m-68-69c30.5 0 38.5 23 68 23m-68-23c30.5 0 37.5-24 68-24m-68 24c30.5 0 24-70 68-70" stroke="#fff" stroke-width="3"/><rect x=".245" y="482.475" width="36" height="36" rx="18" fill="#fff"/><rect x=".245" y=".475" width="36" height="36" rx="18" fill="#fff"/><rect x=".245" y="138.475" width="36" height="36" rx="18" fill="#fff"/><rect x=".245" y="46.475" width="36" height="36" rx="18" fill="#fff"/><rect x=".245" y="92.475" width="36" height="36" rx="18" fill="#fff"/><rect x="556.245" y="344.475" width="36" height="36" rx="18" fill="#fff"/><rect x="556.245" y="482.475" width="36" height="36" rx="18" fill="#fff"/><rect x="556.245" y="390.475" width="36" height="36" rx="18" fill="#fff"/><rect x="556.245" y="436.475" width="36" height="36" rx="18" fill="#fff"/><rect x=".245" y="298.475" width="36" height="36" rx="18" fill="#fff"/><rect x=".245" y="436.475" width="36" height="36" rx="18" fill="#fff"/><rect x=".245" y="344.475" width="36" height="36" rx="18" fill="#fff"/><rect x=".245" y="390.475" width="36" height="36" rx="18" fill="#fff"/><rect x="556.245" y=".475" width="36" height="36" rx="18" fill="#fff"/><rect x="556.245" y="138.475" width="36" height="36" rx="18" fill="#fff"/><rect x="556.245" y="184.475" width="36" height="36" rx="18" fill="#fff"/><rect x="556.245" y="46.475" width="36" height="36" rx="18" fill="#fff"/><rect x="556.245" y="92.475" width="36" height="36" rx="18" fill="#fff"/></svg>