<svg width="120" height="120" fill="none" xmlns="http://www.w3.org/2000/svg"><path d="M13.5 34.5v-8a4 4 0 0 1 4-4h20m-24 12h24m-24 0V44m86-9.5v-8a4 4 0 0 0-4-4h-58m62 12v50a4 4 0 0 1-4 4h-10m14-54h-62m0 0v-12M13.5 79v5.5a4 4 0 0 0 4 4h53M53 49.5h31m-31 12h17m-17-6h31" stroke="#222" stroke-width="3"/><path d="M7.5 73.5v-24h30v24h-30z" stroke="#162EF4" stroke-width="3" stroke-linecap="round" stroke-linejoin="round" stroke-dasharray="0.01 6"/><path d="M86.75 98L89 96.5l3 4.5-9 6-3-4.5 2.25-1.5m4.5-3L86 84.5 71 77m15.75 21l-4.5 3M71 77v16.5l11.25 7.5M71 77l7.5 12" stroke="#222" stroke-width="3"/></svg>