<svg width="120" height="120" fill="none" xmlns="http://www.w3.org/2000/svg"><path d="M56.5 94.5c15.114 0 27.991-9.58 32.889-23M86.818 42C80.766 31.538 69.455 24.5 56.5 24.5c-4.216 0-8.257.745-12 2.111M26.182 77A34.839 34.839 0 0 1 21.5 59.5 34.839 34.839 0 0 1 26.182 42" stroke="#162EF4" stroke-width="3" stroke-linecap="round" stroke-dasharray="0.01 6"/><path d="M72.5 63.5v-13a4 4 0 0 1 4-4h22a4 4 0 0 1 4 4v13a4 4 0 0 1-4 4h-9.43a4 4 0 0 0-2.721 1.069L80.5 74v-6.4a.1.1 0 0 0-.1-.1h-3.9a4 4 0 0 1-4-4zm-63-30v-13a4 4 0 0 1 4-4h22a4 4 0 0 1 4 4v13a4 4 0 0 1-4 4h-9.43a4 4 0 0 0-2.721 1.069L17.5 44v-6.4a.1.1 0 0 0-.1-.1h-3.9a4 4 0 0 1-4-4zm11 65v-13a4 4 0 0 1 4-4h22a4 4 0 0 1 4 4v13a4 4 0 0 1-4 4h-9.43a4 4 0 0 0-2.721 1.069L28.5 109v-6.4a.1.1 0 0 0-.1-.1h-3.9a4 4 0 0 1-4-4z" stroke="#222" stroke-width="3"/><path d="M33.925 97h2.71v-2.391h-2.71V97zm.564-3.207h1.664l.165-.9c1.527-.38 2.682-1.14 2.682-2.911C39 88.125 37.584 87 35.562 87c-1.582 0-2.723.619-3.562 1.477l1.375 1.856c.647-.59 1.362-.928 2.008-.928.66 0 1.031.295 1.031.774 0 .618-.563.998-2.159 1.139l-.11.126.344 2.35zM89 56.5a1.5 1.5 0 1 1-3 0 1.5 1.5 0 0 1 3 0zm-5 0a1.5 1.5 0 1 1-3 0 1.5 1.5 0 0 1 3 0zm10 0a1.5 1.5 0 1 1-3 0 1.5 1.5 0 0 1 3 0z" fill="#222"/><path d="M20.5 27l3.5 2.5 4.5-6.5" stroke="#222" stroke-width="2"/></svg>