<svg width="120" height="120" fill="none" xmlns="http://www.w3.org/2000/svg"><path d="M36.797 49.05l31.91 19.942a.01.01 0 0 0 .015-.007L77 12 7.026 40.825a.01.01 0 0 0 0 .018l22.677 7.033m7.094 1.174L62.12 27.775M36.797 49.05l3.543 19.926a.01.01 0 0 0 .018.003l4.716-7.02" stroke="#222" stroke-width="3"/><path d="M27 62c-7.078 7.5-21.764 24.188-14.5 31.5 8.94 9 44.63-9.813 49.986 3.125C65.28 103.375 55.78 109 55.78 109" stroke="#162EF4" stroke-width="3" stroke-linecap="round" stroke-dasharray="0.01 6"/></svg>