<svg width="204" height="148" fill="none" xmlns="http://www.w3.org/2000/svg"><path fill-rule="evenodd" clip-rule="evenodd" d="M8.5 38.5A7.5 7.5 0 0 0 1 46v78a3.5 3.5 0 0 0 3.5 3.5h62.823c.198-1.003.37-2.005.513-3H4.5a.5.5 0 0 1-.5-.5V46a4.5 4.5 0 0 1 4.5-4.5h90A4.5 4.5 0 0 1 103 46v44.068c1.2.86 2.222 1.951 3 3.205V46a7.5 7.5 0 0 0-7.5-7.5h-90zm1.5 6a3 3 0 1 0 0 6 3 3 0 0 0 0-6zm9 0a3 3 0 1 0 0 6 3 3 0 0 0 0-6zm9 0a3 3 0 1 0 0 6 3 3 0 0 0 0-6z" fill="#222"/><path fill-rule="evenodd" clip-rule="evenodd" d="M15 69.5c0-2.468 2.032-4.5 4.5-4.5h27c2.468 0 4.5 2.032 4.5 4.5v42c0 2.467-2.032 4.5-4.5 4.5H45a1.5 1.5 0 1 1 0-3h1.5c.847 0 1.5-.652 1.5-1.5v-42c0-.847-.653-1.5-1.5-1.5h-27c-.848 0-1.5.653-1.5 1.5v42c0 .848.652 1.5 1.5 1.5H21a1.5 1.5 0 1 1 0 3h-1.5c-2.468 0-4.5-2.033-4.5-4.5v-42zm42 0c0-2.468 2.032-4.5 4.5-4.5h27c2.468 0 4.5 2.032 4.5 4.5V74c0 2.468-2.032 4.5-4.5 4.5h-27c-2.468 0-4.5-2.032-4.5-4.5v-4.5zM88.5 68h-27c-.847 0-1.5.653-1.5 1.5V74c0 .847.653 1.5 1.5 1.5h27c.847 0 1.5-.653 1.5-1.5v-4.5c0-.847-.653-1.5-1.5-1.5zM57 89v-3h36v2.59c-.351.12-.694.257-1.028.41H57zm28.956 15H57v3h29.296l-.34-3zm-16.336 9H57v3h11.513a9.888 9.888 0 0 1 1.107-3zM57 98v-3h28v3H57zm-31.06 15.439a1.501 1.501 0 1 1 2.12 2.124 1.501 1.501 0 0 1-2.12-2.124zm6 0a1.501 1.501 0 1 1 2.12 2.124 1.501 1.501 0 0 1-2.12-2.124zm6 0a1.501 1.501 0 1 1 2.12 2.124 1.501 1.501 0 0 1-2.12-2.124z" fill="#222"/><path d="M67.8 145.3s6.828-8.194 7.454-28.491c.051-1.656 1.386-3.009 3.043-3.009H88.8c8.25 0-3.75-18 7.5-18s-.75 18 7.5 18h10.503c1.657 0 3.003 1.351 2.945 3.007-.664 18.995-7.448 28.493-7.448 28.493H75.75c3.3-6 4.05-10.5 4.05-10.5" stroke="#222" stroke-width="3" stroke-linecap="round"/><path d="M82.5 122.8h27.6M8.7 55.4h90M27 114.5h12" stroke="#162EF4" stroke-width="3" stroke-linecap="round" stroke-linejoin="round" stroke-dasharray="0.01 6"/></svg>