<svg width="120" height="120" fill="none" xmlns="http://www.w3.org/2000/svg"><path d="M60.692 91.582l-41.35 11.079L4.809 48.419 22.5 43.678" stroke="#162EF4" stroke-width="3" stroke-linecap="round" stroke-linejoin="round" stroke-dasharray="0.01 6"/><path d="M76 32.787l25.223 6.759L112 42.433 97.677 95.886 56.294 84.798l1.688-6.298m17.237-7.112l12.007 3.217a4 4 0 0 0 4.899-2.829l3.012-11.24a4 4 0 0 0-2.829-4.898l-11.24-3.012a4 4 0 0 0-4.899 2.829L75.487 58" stroke="#222" stroke-width="3"/><path fill-rule="evenodd" clip-rule="evenodd" d="M84.779 60.304c-.393-.576-1.055-.996-1.913-1.226l-2.972-.797-1.895 7.071 2.118.568.52-1.938.76.204c.842.226 1.645.209 2.299-.085.659-.295 1.15-.863 1.374-1.702.214-.797.103-1.516-.291-2.095zm-2.477.315c.35.094.629.257.797.493.171.242.212.539.125.865-.084.313-.269.55-.535.679-.262.127-.586.141-.936.047l-1.012-.27.558-2.083 1.002.269z" fill="#222"/><path d="M87.795 61.935c-.612-.164-1.202-.15-1.684.065-.486.216-.849.629-1.009 1.227-.156.582-.042 1.037.245 1.416.278.368.713.657 1.179.932.252.147.428.255.535.349.108.095.1.134.097.149-.017.063-.043.083-.074.094-.045.015-.13.018-.276-.021-.493-.133-1.055-.489-1.517-1.024l-.103-.12-1.18 1.14.085.106a4.327 4.327 0 0 0 2.283 1.473c.643.173 1.242.167 1.727-.048.49-.217.845-.638 1.01-1.253.15-.564.033-1.012-.253-1.39-.276-.366-.708-.662-1.171-.947a4.49 4.49 0 0 1-.537-.367c-.114-.101-.106-.14-.102-.154a.087.087 0 0 1 .062-.066c.043-.015.12-.02.242.012.37.1.874.419 1.311.85l.11.11 1.122-1.212-.09-.102c-.502-.568-1.241-1.012-2.012-1.219z" fill="#222"/><path d="M46.5 37.5l-7 7.5 12 14 12-14-7-7.5h-10z" stroke="#222" stroke-width="3"/></svg>